<svg xmlns="http://www.w3.org/2000/svg" width="128" height="128" viewBox="0 0 128 128">
  <title>PARROT </title>
  <g>
    <g>
      <rect x="6.5" y="100.25" width="115" height="6" fill="#663325"/>
      <path d="M103.808,121.5S79.682,96.4,59.13,84.94L70.75,50.333C96.349,81.316,102.669,114.172,103.808,121.5Z" fill="#fc4b00"/>
      <path d="M13.875,31.25C18.25,38.75,29.625,39,29.625,39l1.394-11.937S20.75,25.5,18.5,27.063A33,33,0,0,0,13.875,31.25Z" fill="#e02000"/>
      <path d="M31.583,17.5c-12.416,0-22.458,2.125-20.708,19.125,3-4.125,16.625-7.75,20-7.125Z" fill="#fc4b00"/>
      <path d="M82.66,83.17s-36,.47-47.78-17.15a45.365,45.365,0,0,1-5.86-13.37c-.14-.54-.28-1.08-.41-1.62a70.917,70.917,0,0,1-1.35-7.38,108.476,108.476,0,0,1-.45-21.44,16.917,16.917,0,0,1,6.07-11.79l.01-.01a16.4,16.4,0,0,1,2.64-1.8,16.966,16.966,0,0,1,24.2,9.23Z" fill="#fc4b00"/>
      <path d="M48.88,27.56c0,12.38-5.65,19.12-19.86,25.09-.14-.54-.28-1.08-.41-1.62a70.917,70.917,0,0,1-1.35-7.38,108.476,108.476,0,0,1-.45-21.44,16.917,16.917,0,0,1,6.07-11.79l.01-.01a16.4,16.4,0,0,1,2.64-1.8C46.87,12.35,48.88,23.22,48.88,27.56Z" fill="#ffd203"/>
      <circle cx="37.681" cy="23.368" r="3" fill="#eaeaf0"/>
      <path d="M27.866,47.493c15.127-7.243,33.444-13.061,48.2,5.949,13.432,17.308,7.682,57.308,7.682,57.308C52.493,98.875,30.118,66,27.866,47.493Z" fill="#3ba9fd"/>
    </g>
    <g>
      <path d="M121.5,98.5H99.666A161.6,161.6,0,0,0,83.53,64.991a38.219,38.219,0,0,0-6.087-12.622,42.146,42.146,0,0,0-5.953-6.3l-2.682-7.645a1.75,1.75,0,0,0-3.3,1.16l1.058,3.014a29.406,29.406,0,0,0-18.12-3.543A27.261,27.261,0,0,0,50.63,27.56c0-1.45-.336-13.1-10.577-18.864a15.233,15.233,0,0,1,18.026,9.723l2.794,7.962a1.75,1.75,0,0,0,3.3-1.159l-2.8-7.961A18.713,18.713,0,0,0,34.743,7.047h0l-.048.025a18.224,18.224,0,0,0-2.922,1.991c-.013.011-.028.023-.043.037a18.657,18.657,0,0,0-5.108,6.8c-4.86.326-10.565,1.366-14.148,5.541C9.516,24.885,8.425,29.91,9.139,36.8a1.75,1.75,0,0,0,3.156.848,8.915,8.915,0,0,1,2.85-2.176,21.408,21.408,0,0,0,9.985,4.7c.11,1.255.237,2.5.395,3.7.179,1.347.377,2.595.6,3.812V47.7c.673,5.53,3.012,12.143,6.765,19.123a1.75,1.75,0,1,0,3.083-1.658,55.816,55.816,0,0,1-6.195-16.647,69.324,69.324,0,0,1,15.47-5.463,1.766,1.766,0,0,0,.482-.1c10.2-1.915,20.165.239,28.946,11.553,11.047,14.236,8.54,45.226,7.6,53.771A89.934,89.934,0,0,1,54.524,89.541a1.787,1.787,0,0,0-.34-.327,103.992,103.992,0,0,1-8.222-9.094c-.033-.046-.068-.091-.105-.134-2.166-2.708-4.217-5.532-6.119-8.467a1.75,1.75,0,1,0-2.937,1.9c1.843,2.846,3.83,5.584,5.917,8.225L40.752,98.5H30.917a1.75,1.75,0,0,0,0,3.5h33.05c1.221.87,2.459,1.7,3.706,2.5H8.25V102H22a1.75,1.75,0,0,0,0-3.5H6.5a1.751,1.751,0,0,0-1.75,1.75v6A1.751,1.751,0,0,0,6.5,108H73.584a80.2,80.2,0,0,0,9.537,4.386A1.75,1.75,0,0,0,85.475,111c.035-.244.184-1.319.367-3h1.24c8.934,7.941,15.394,14.638,15.467,14.713a1.75,1.75,0,0,0,2.991-1.482A121.438,121.438,0,0,0,102.618,108H121.5a1.751,1.751,0,0,0,1.75-1.75v-6A1.751,1.751,0,0,0,121.5,98.5ZM12.426,33.015c-.013-4.113.88-7.172,2.7-9.3,2.024-2.358,5.259-3.688,10.324-4.207a19.062,19.062,0,0,0-.389,2.574q-.228,3.215-.293,6.3A47.968,47.968,0,0,0,14.866,31.7a1.742,1.742,0,0,0-.332.159A23.837,23.837,0,0,0,12.426,33.015Zm6.294.832a47.627,47.627,0,0,1,6.027-1.867c.012,1.541.052,3.059.126,4.545A19.024,19.024,0,0,1,18.72,33.847Zm10.5,11.084c-.076-.494-.151-.988-.22-1.509q-.306-2.329-.487-4.79l0-.029c-.208-2.8-.29-5.714-.258-8.73v-.032c.027-2.438.124-4.938.307-7.5A15.1,15.1,0,0,1,34,11.764l.036-.031a15.159,15.159,0,0,1,1.687-1.193C46.8,14.686,47.13,26.23,47.13,27.56c0,5.034-.98,8.922-3.046,12.184A72.106,72.106,0,0,0,29.215,44.931Zm16.59,40.455q2.651,3.063,5.495,5.891L50.453,98.5H44.276ZM53.977,98.5l.492-4.193c1.6,1.461,3.237,2.852,4.9,4.193ZM89,105.022c-.015-.016-.033-.028-.049-.043q-1.284-1.137-2.625-2.3a134.892,134.892,0,0,0-.551-26.964,153.974,153.974,0,0,1,15.278,40.539C98.174,113.438,93.937,109.4,89,105.022Zm30.755-.522H101.608c-.246-.815-.5-1.645-.775-2.5H119.75Z" fill="#072130"/>
      <path d="M62.774,31.8l.845,2.406a1.75,1.75,0,0,0,3.3-1.16l-.844-2.405a1.75,1.75,0,1,0-3.3,1.159Z" fill="#072130"/>
      <path d="M37.681,18.618a4.75,4.75,0,1,0,4.75,4.75A4.756,4.756,0,0,0,37.681,18.618Zm0,6a1.25,1.25,0,1,1,1.25-1.25A1.25,1.25,0,0,1,37.681,24.618Z" fill="#072130"/>
      <path d="M78.691,84.917c.039,0,.08,0,.119,0a1.75,1.75,0,0,0,1.629-1.863c-.217-3.224-.563-6.279-1.028-9.079a1.75,1.75,0,1,0-3.453.574c.447,2.688.78,5.628.989,8.739A1.75,1.75,0,0,0,78.691,84.917Z" fill="#072130"/>
    </g>
  </g>
</svg>
